<?xml version="1.0" encoding="utf-8"?>
<!-- Generator: Adobe Illustrator 22.1.0, SVG Export Plug-In . SVG Version: 6.00 Build 0)  -->
<svg version="1.1" id="Layer_1" xmlns="http://www.w3.org/2000/svg" xmlns:xlink="http://www.w3.org/1999/xlink" x="0px" y="0px"
	 viewBox="0 0 500 500" style="enable-background:new 0 0 500 500;" xml:space="preserve">
<style type="text/css">
	.st0{fill:#FFFFFF;}
	.st1{fill:url(#Shape_1_);}
</style>
<title>Egen Logo</title>
<desc>Created with Sketch.</desc>
<g id="Page-1">
	<g id="Egen---Uptake-Case-Study" transform="translate(-515.000000, -26.000000)">
		<g id="Egen-Logo" transform="translate(515.000000, 26.000000)">
			<circle id="Oval" class="st0" cx="250.1" cy="249.8" r="181.4"/>
			
				<linearGradient id="Shape_1_" gradientUnits="userSpaceOnUse" x1="-696.5869" y1="784.0819" x2="-689.4438" y2="779.9579" gradientTransform="matrix(60 0 0 -60 41831 47171)">
				<stop  offset="0" style="stop-color:#F8ABA4"/>
				<stop  offset="0.5" style="stop-color:#ED4435"/>
				<stop  offset="1" style="stop-color:#F4921B"/>
			</linearGradient>
			<path id="Shape" class="st1" d="M226.4,246.5v22.6c-0.1,7-2.3,13-6.5,17.6c-0.8,0.9-1.6,1.8-2.6,2.6c-3.7,3.1-7.7,4.9-12.5,5.1
				h-2.6c-4.7-0.3-8.7-2.3-12.3-6.2c-2.8-3.4-4.6-7.5-4.9-12.1c0-0.7-0.1-1.4-0.1-2l-0.1-1.5v-19.5v-14c0-6.9,2.2-12.9,6.4-17.5
				c4.3-4.7,9.6-7.5,15.6-7.9h2.2c4.7,0.3,8.7,2.3,12.3,6.2c3.4,3.9,5.1,8.7,5.1,14.1V246.5z M291,213.7h-2.2
				c-6,0.3-11.1,2.8-15.4,7.7c-4.2,4.6-6.4,10.4-6.5,17.5v15.4h23.6c4.9-0.1,9.1-2,12.6-6c3.5-3.9,5.4-8.7,5.4-14.2
				c0-5.4-1.8-10.2-5.1-14.1C299.7,216,295.6,214,291,213.7z M497.5,249.8c0,136.6-110.7,247.4-247.4,247.4S2.7,386.4,2.7,249.8
				S113.5,2.4,250.1,2.4S497.5,113.2,497.5,249.8z M115.1,230.7v-38.9h47.3c3.9,0,6.1-2.3,6.1-6.5c0-4.3-2.2-6.6-6.1-6.6h-57.7
				c-2.2,0-6,0.8-6,6.5v114.4c0,5.7,3.7,6.5,6,6.5h40.4h17.3c3.9,0,6-2.3,6-6.5c0-4.2-2.2-6.5-6-6.5h-11.9h-35.4v-49.5h38.1
				c3.9,0,6-2.3,6-6.4c0-4.2-2.2-6.5-6-6.5H115.1L115.1,230.7z M242.9,231.2c0-0.7-0.1-1.4-0.4-2.2v-0.3c0-0.3,0-0.4-0.1-0.7l0,0
				c0-0.1,0-0.4-0.1-0.7v-0.1c0-0.1,0-0.4-0.1-0.7v-0.5l-0.1-0.1c0-0.1,0-0.1-0.1-0.3v-1.4h-0.3c0-0.1-0.1-0.4-0.3-0.7v-0.3
				l-0.1-0.3c-0.1-0.3-0.3-0.5-0.3-0.8c-0.1-0.3-0.1-0.4-0.3-0.7v-0.4l-0.3-0.3v-1.2h-0.5v-0.3l-0.3-0.3l-0.1-1.1H239
				c-0.1-0.4-0.3-0.7-0.4-0.8v-0.5l-0.3-0.3c-0.1-0.1-0.1-0.3-0.3-0.5l-0.1-0.1c-0.1-0.1-0.1-0.3-0.3-0.4c-0.1-0.1-0.3-0.3-0.4-0.7
				v-0.9h-0.7l-0.1-0.1c0-0.1-0.1-0.3-0.3-0.4l-0.1-0.1v-0.1l-0.9-1.1l0,0l-0.1-0.1l-0.7-0.7v-0.9H234v-0.3h-0.8l-0.8-0.8h-0.1
				c-0.1-0.1-0.3-0.3-0.5-0.5l-0.1-0.1c-0.1-0.1-0.3-0.3-0.4-0.4v-0.3l-0.4-0.3v-0.8h-0.9V206h-0.5v-0.4h-0.9v-0.5h-0.8l-0.1-0.1
				l-0.5-0.1l-0.5-0.4h-0.1c-0.3-0.3-0.5-0.4-0.8-0.4l-0.1-0.1c-0.1-0.1-0.4-0.3-0.7-0.3c0,0-0.1,0-0.1-0.1c-0.1,0-0.1-0.1-0.3-0.1
				c-0.1-0.1-0.3-0.1-0.4-0.1c-0.1-0.1-0.3-0.1-0.5-0.1l-0.4-0.3h-0.4l-0.3-0.3h-0.5h-0.1c-0.4-0.3-0.9-0.4-1.4-0.4l-0.5-0.3
				c-0.3-0.1-0.5-0.1-0.8-0.1h-0.1c-0.3-0.1-0.4-0.1-0.7-0.1l-0.3-0.1h-0.4l-0.1-0.1h-1.2c-0.3-0.1-0.5-0.1-0.8-0.1h-0.8
				c-0.3-0.1-0.5-0.1-0.8-0.1h-11.2c-9.5,0.5-17.5,4.5-23.8,11.9c-6.5,7.2-9.8,16.1-9.8,26.4v31.8v3.3c0,0.5,0,1.1,0.1,1.4
				c0,1.2,0.1,2.3,0.3,3.4c0.9,7.5,3.8,13.8,8.8,19c5.8,6.1,12.9,9.2,21,9.2h10.7c5.6-0.3,10.7-1.9,15.6-4.9
				c0.4-0.3,0.9-0.5,1.4-0.9v10.3c-0.1,3.1-0.7,5.8-1.8,8.5c-3.7,10.8-13.3,19.4-25.6,23c4.3,1.2,8.9,1.9,13.7,1.9
				c0.3,0,0.5,0,0.8-0.1c0.1,0,0.4-0.1,0.8-0.1c7.3-0.4,13.7-3.5,19.2-9.2c5.3-5.6,8.4-12.5,9.3-20.3c0.1-0.4,0.1-0.8,0.1-1.6v-59.3
				v-23.3H242.9z M324.9,234.1c0-9.2-3-17.1-8.9-23.4c-5.7-6.4-12.7-9.8-20.9-9.9l0,0h-10.4c-8.9,0.3-16.9,3.9-23.6,11
				c-6.5,6.9-10,15.3-10.6,25.2v36c0.1,8.8,3,16.4,8.4,22.2c5.6,6.2,12.3,9.6,20.2,10.2c0.4,0.1,0.7,0.1,0.9,0.1
				c0.4,0.1,0.7,0.1,0.8,0.1h28.9c2.2,0,6-0.8,6-6.5c0-4.1-2-6.4-6-6.4h-22.8c-0.3-0.1-0.5-0.1-0.7-0.1c-0.3-0.1-0.5-0.1-0.8-0.1
				c-4.9,0-9.1-1.9-12.9-5.8c-3.5-3.8-5.3-8.7-5.6-14.2v-5.3h27.8c8.3,0,15.4-3.3,21.3-9.8C321.9,250.9,324.9,243,324.9,234.1z
				 M406.8,232l-0.1-1.4l0,0c0-0.1,0-0.4-0.1-0.5v-0.9l-0.1-0.1c0,0,0-0.1,0-0.3c0-0.1,0-0.5-0.1-0.9l0,0c-0.7-4.1-2-7.9-4.1-11.4
				l-0.1-0.3l-0.3-0.1c-0.1,0-0.1-0.1-0.3-0.3c-0.1-0.3-0.3-0.4-0.4-0.7V215l-0.1-0.3c0-0.1-0.1-0.1-0.1-0.3v-0.1l-0.4-0.4
				c-0.1-0.3-0.3-0.4-0.4-0.5l-0.1-0.1c0-0.1-0.1-0.1-0.3-0.3l-0.1-0.1l-0.1-0.9h-0.7l-0.1-0.1v-0.1l-0.5-0.7l-0.1-0.8h-0.8L397,210
				l-0.1-0.8h-0.7l-0.4-0.4v-0.5h-0.7c-0.1-0.1-0.4-0.3-0.5-0.4c0,0,0,0-0.3-0.3c-0.7-0.5-1.4-1.2-2.3-1.6v-0.7h-0.8l-0.4-0.4h-0.4
				h-0.1c0,0,0,0-0.1-0.1v-0.5h-0.4l-0.1-0.1h-0.1l-0.1-0.1H389c0,0,0,0-0.1,0c-0.1-0.1-0.3-0.1-0.4-0.1l-0.4-0.4h-0.3l-0.1-0.1
				h-0.3c-0.1-0.1-0.4-0.1-0.5-0.3c-0.1,0-0.3-0.1-0.3-0.1l-0.3-0.3H386l-0.1-0.1h-0.5c0,0,0,0-0.1,0c-0.1-0.1-0.4-0.1-0.5-0.3
				l-0.1-0.1h-0.7l-0.3-0.1l0,0c-0.1-0.1-0.4-0.1-0.5-0.1l-0.1-0.1h-0.3l-0.1-0.1h-0.5l-0.1-0.1h-0.9c-0.3-0.1-0.5-0.1-0.7-0.1h-0.3
				c-0.3-0.1-0.5-0.1-0.8-0.1h-0.8l-0.3-0.1h-11.8c-6.5,0.3-12.3,2.3-17.6,6.1c-0.8-3.7-3.8-4.3-5.7-4.3h-4.6
				c-2.2,0-5.8,0.8-5.8,6.5v90.2c0,5.7,3.7,6.5,5.8,6.5h4.6c2.2,0,5.8-0.8,5.8-6.5v-60.4c0.1-6.9,2.3-12.7,6.5-17.3
				c4.3-4.9,9.3-7.5,15.4-7.9h2.2c4.7,0.3,8.7,2.3,12.3,6.2c3.4,3.9,5.1,8.7,5.1,14.1v65.2c0,4.2,2.2,6.5,6,6.5h4.5
				c3.9,0,6-2.3,6-6.5V232H406.8z"/>
		</g>
	</g>
</g>
</svg>
